<?xml version="1.0" encoding="utf-8"?>
<!-- Generator: Adobe Illustrator 23.0.2, SVG Export Plug-In . SVG Version: 6.00 Build 0)  -->
<svg version="1.1" id="Layer_1" xmlns="http://www.w3.org/2000/svg" xmlns:xlink="http://www.w3.org/1999/xlink" x="0px" y="0px"
	 viewBox="0 0 100.5 18.09" style="enable-background:new 0 0 100.5 18.09;" xml:space="preserve">
<style type="text/css">
	.st0{fill:#111111;}
</style>
<g>
	<path class="st0" d="M5.36,0C3.4,0,2.02,0.5,1.21,1.49C0.4,2.48,0,3.94,0,5.88v6.34c0,1.9,0.41,3.35,1.22,4.35
		c0.82,1.01,2.19,1.51,4.13,1.51c1.87,0,3.19-0.46,3.97-1.38c0.78-0.92,1.17-2.2,1.17-3.85v-1.52H6.64v1.85
		c0,0.69-0.08,1.23-0.23,1.6c-0.15,0.37-0.5,0.55-1.05,0.55c-0.54,0-0.91-0.18-1.09-0.55c-0.18-0.37-0.28-0.9-0.28-1.6V4.91
		c0-0.68,0.09-1.21,0.26-1.6c0.18-0.38,0.54-0.58,1.1-0.58s0.91,0.18,1.06,0.54c0.15,0.36,0.22,0.88,0.22,1.56V6.6h3.86V5.08
		c0-1.62-0.39-2.87-1.17-3.76C8.55,0.44,7.22,0,5.36,0z"/>
	<path class="st0" d="M15.2,0.24l-3.37,17.59h3.73l0.62-3.71h2.62l0.6,3.71h3.64L19.69,0.24H15.2z M16.52,11.79l0.95-6.86l0.95,6.86
		H16.52z"/>
	<polygon class="st0" points="23.06,3.13 25.75,3.13 25.75,17.83 29.72,17.83 29.72,3.13 32.39,3.13 32.39,0.24 23.06,0.24 	"/>
	<polygon class="st0" points="42.02,9.62 45.62,9.62 45.62,7.88 42.02,7.88 42.02,2.06 46.46,2.06 46.46,0.24 39.53,0.24 
		39.53,17.83 46.5,17.83 46.5,16.07 42.02,16.07 	"/>
	<polygon class="st0" points="55.26,11.92 50.19,0.24 48.49,0.24 48.49,17.83 50.6,17.83 50.6,5.82 55.74,17.83 57.33,17.83 
		57.33,0.24 55.26,0.24 	"/>
	<polygon class="st0" points="62.3,9.62 65.9,9.62 65.9,7.88 62.3,7.88 62.3,2.06 66.74,2.06 66.74,0.24 59.81,0.24 59.81,17.83 
		66.78,17.83 66.78,16.07 62.3,16.07 	"/>
	<path class="st0" d="M77.61,4.91c0-1.65-0.42-2.84-1.27-3.57c-0.85-0.73-2.17-1.1-3.98-1.1h-3.59v17.59h2.49V9.57h1.94l2.34,8.25
		h2.4l-2.54-8.82C76.87,8.53,77.61,7.17,77.61,4.91z M74.51,7.19c-0.46,0.42-1.23,0.63-2.3,0.63h-0.95V2h1.1
		c0.75,0,1.33,0.1,1.74,0.29c0.41,0.2,0.7,0.5,0.86,0.91c0.16,0.41,0.24,0.98,0.24,1.7C75.21,6.01,74.98,6.77,74.51,7.19z"/>
	<path class="st0" d="M84.78,10.86h2.27v1.22c0,1.4-0.17,2.42-0.52,3.06c-0.35,0.64-0.98,0.96-1.91,0.96
		c-0.94,0-1.58-0.29-1.91-0.88c-0.33-0.59-0.5-1.55-0.5-2.9V5.8c0-0.87,0.05-1.56,0.14-2.09c0.1-0.52,0.31-0.94,0.65-1.25
		C83.35,2.15,83.87,2,84.56,2c0.65,0,1.14,0.12,1.47,0.35c0.33,0.23,0.55,0.57,0.65,1.03c0.1,0.46,0.15,1.1,0.15,1.94v0.54h2.34
		V5.21c0-1.77-0.36-3.06-1.09-3.89c-0.73-0.82-1.92-1.24-3.56-1.24c-1.22,0-2.18,0.24-2.88,0.71c-0.7,0.47-1.19,1.14-1.48,2.02
		c-0.29,0.88-0.43,1.99-0.43,3.35v5.88c0,1.98,0.36,3.48,1.08,4.48c0.72,1.01,1.89,1.51,3.51,1.51c1.56,0,2.62-0.75,3.17-2.24
		l0.24,2.02h1.56V9.12h-4.52V10.86z"/>
	<polygon class="st0" points="98.16,0.24 95.47,8.73 92.74,0.24 90.42,0.24 94.28,11.62 94.28,17.83 96.66,17.83 96.66,11.62 
		100.5,0.24 	"/>
</g>
</svg>
