
<svg xmlns="http://www.w3.org/2000/svg" viewBox="0 0 30 15.76"><path d="M23.94 15.76c-.39 0-1.17-.08-2.08-.63-.64-.39-1.22-.97-1.78-1.53-.44-.44-1.17-1.18-1.45-1.18-.27.08-.48.92-.48 1.57 0 .11 0 .77-.47 1.21-.42.4-1.09.49-1.22.5l-1.93.01c-.97 0-4.36-.22-7.43-3.02C3.44 9.33.28 2.89.15 2.61c-.2-.46-.25-1.06.15-1.48C.69.72 1.38.66 1.66.65L5.74.63l.11.01c.09.01.57.1.96.35.39.24.59.65.63.73.01.02.65 1.43 1.48 2.68 1.31 1.99 1.9 2.45 2.1 2.56.19-.42.28-1.7.19-2.87 0-.49-.1-1.1-.25-1.28-.11-.13-.43-.25-.78-.29l-.73-.69c-.1-.66.64-1.23 1.15-1.45.74-.31 1.79-.38 3.15-.38l.71.01c1.24.01 1.62.08 2.15.19 1.7.36 1.64 1.73 1.57 3.31-.02.46-.05 1-.05 1.62 0 .15 0 .31-.01.48-.01.38-.03 1.04.09 1.3.22-.15.85-.67 2.07-2.48.78-1.16 1.4-2.54 1.52-2.8.18-.43.61-.94 1.61-.95l4.27-.02c.01 0 .17-.02.38-.02.98 0 1.6.29 1.83.85.27.65.17 1.66-2.35 4.61-.37.43-.7.8-.98 1.13-.6.68-1.22 1.38-1.24 1.59.05.17.66.67 1.25 1.15 1.53 1.25 2.53 2.26 3.03 3.07.52.76.43 1.33.26 1.68-.42.86-1.64.97-1.88.99l-3.79.05c-.04-.01-.13 0-.25 0zm-5.31-4.84c.9 0 1.68.79 2.51 1.62.5.5 1.01 1.02 1.5 1.31.73.44 1.32.42 1.4.41l.1-.01 3.81-.05c.17-.01.41-.07.54-.14-.02-.04-.05-.09-.1-.17-.45-.72-1.39-1.66-2.69-2.72-1.18-.96-1.8-1.47-1.86-2.24-.07-.81.49-1.44 1.61-2.7.28-.32.6-.68.97-1.11 1.56-1.82 1.96-2.64 2.06-2.96-.17-.03-.65-.02-.68-.02l-4.36.03c-.19 0-.25.03-.25.04-.19.42-.83 1.82-1.66 3.05-1.9 2.82-2.78 3.2-3.41 3.2-.2 0-.4-.05-.57-.15-1-.57-.96-1.83-.93-2.76 0-.15.01-.3.01-.43 0-.65.02-1.21.05-1.69.08-1.68.02-1.69-.38-1.78-.41-.09-.7-.15-1.86-.16l-.69.01c-.62 0-1.34.01-1.91.1.09.07.18.16.26.25.59.7.6 1.95.6 2.19.13 1.65.06 3.8-1.02 4.31-.19.09-.39.14-.6.14-.93 0-1.85-.89-3.43-3.27-.88-1.35-1.54-2.82-1.57-2.88a.7.7 0 00-.08-.1c-.08-.05-.23-.1-.32-.12l-4 .02c-.02 0-.05 0-.07.01.59 1.19 3.43 6.59 6.52 9.42 2.74 2.5 5.83 2.63 6.42 2.63h1.85c.05-.01.22-.06.27-.1-.02.02-.01-.05-.01-.1 0-.26.01-2.59 1.58-3.03.12-.03.26-.05.39-.05z"/></svg>